<?xml version="1.0" encoding="UTF-8" standalone="no"?>
<!DOCTYPE svg PUBLIC "-//W3C//DTD SVG 1.1//EN" "http://www.w3.org/Graphics/SVG/1.1/DTD/svg11.dtd">
<svg width="100%" height="100%" viewBox="0 0 2116 454" version="1.1" xmlns="http://www.w3.org/2000/svg" xmlns:xlink="http://www.w3.org/1999/xlink" xml:space="preserve" xmlns:serif="http://www.serif.com/" style="fill-rule:evenodd;clip-rule:evenodd;stroke-linejoin:round;stroke-miterlimit:2;">
    <g transform="matrix(4.16667,0,0,4.16667,0,0)">
        <path d="M151.092,32.33L164.976,32.33C167.691,32.33 169.843,32.768 171.44,33.646C173.116,34.523 173.953,36.04 173.953,38.194C173.953,40.987 173.155,42.863 171.561,43.819C169.964,44.779 167.769,45.257 164.976,45.257L151.092,45.257L151.092,32.33ZM124.758,97.444L173.236,97.444C176.987,97.444 180.656,96.886 184.247,95.769C187.84,94.651 191.03,93.015 193.823,90.862C196.616,88.706 198.851,86.035 200.527,82.841C202.283,79.57 203.159,75.779 203.159,71.47C203.159,68.358 202.721,65.605 201.843,63.21C201.045,60.817 199.969,58.782 198.611,57.107C197.255,55.352 195.659,53.914 193.823,52.798C192.068,51.681 190.233,50.802 188.319,50.165C191.509,48.409 194.063,46.254 195.979,43.701C197.894,41.147 198.851,37.716 198.851,33.407C198.851,31.252 198.492,28.937 197.774,26.464C197.056,23.911 195.659,21.557 193.584,19.402C191.589,17.247 188.797,15.491 185.206,14.134C181.694,12.699 177.146,11.981 171.561,11.981L124.758,11.981L124.758,97.444ZM151.092,61.176L167.61,61.176C173.754,61.176 176.826,63.77 176.826,68.957C176.826,70.631 176.547,71.989 175.988,73.026C175.431,74.063 174.673,74.902 173.714,75.54C172.757,76.098 171.639,76.499 170.362,76.738C169.166,76.976 167.889,77.094 166.532,77.094L151.092,77.094L151.092,61.176Z"/>
        <path d="M205.674,97.444L232.127,97.444L235.957,85.236L263.128,85.236L266.719,97.444L294.01,97.444L262.888,11.981L237.153,11.981L205.674,97.444ZM241.703,66.922L249.962,40.588L250.202,40.588L257.862,66.922L241.703,66.922Z"/>
        <path d="M379.352,43.819C378.235,33.047 374.446,24.748 367.981,18.923C361.597,13.019 352.5,10.025 340.691,9.946C334.067,9.946 328.082,11.024 322.735,13.177C317.47,15.332 312.919,18.364 309.09,22.275C305.34,26.186 302.426,30.892 300.352,36.399C298.358,41.905 297.36,48.01 297.36,54.712C297.36,61.017 298.318,66.922 300.232,72.426C302.147,77.854 304.939,82.562 308.61,86.552C312.363,90.541 316.911,93.695 322.256,96.007C327.604,98.32 333.748,99.478 340.691,99.478C346.916,99.478 352.46,98.442 357.328,96.368C362.196,94.292 366.266,91.58 369.538,88.228C372.888,84.797 375.402,80.965 377.078,76.738C378.835,72.507 379.714,68.239 379.714,63.929L353.858,63.929C353.458,65.924 352.9,67.799 352.181,69.556C351.544,71.311 350.665,72.827 349.547,74.104C348.511,75.38 347.195,76.377 345.598,77.094C344.082,77.815 342.207,78.173 339.972,78.173C336.861,78.173 334.267,77.496 332.191,76.138C330.117,74.782 328.44,72.986 327.164,70.752C325.967,68.519 325.089,66.003 324.53,63.21C323.973,60.417 323.693,57.585 323.693,54.712C323.693,51.84 323.973,49.006 324.53,46.214C325.089,43.421 325.967,40.908 327.164,38.672C328.44,36.439 330.117,34.643 332.191,33.287C334.267,31.93 336.861,31.252 339.972,31.252C342.685,31.252 344.881,31.77 346.554,32.808C348.311,33.845 349.708,35.041 350.745,36.399C351.782,37.756 352.5,39.151 352.9,40.588C353.298,41.945 353.578,43.021 353.737,43.819L379.352,43.819Z"/>
        <path d="M470.202,43.819C469.084,33.047 465.294,24.748 458.829,18.923C452.446,13.019 443.349,10.025 431.54,9.946C424.917,9.946 418.931,11.024 413.583,13.177C408.318,15.332 403.768,18.364 399.937,22.275C396.188,26.186 393.276,30.892 391.2,36.399C389.206,41.905 388.21,48.01 388.21,54.712C388.21,61.017 389.166,66.922 391.082,72.426C392.996,77.854 395.789,82.562 399.46,86.552C403.212,90.541 407.758,93.695 413.105,96.007C418.454,98.32 424.597,99.478 431.54,99.478C437.763,99.478 443.309,98.442 448.175,96.368C453.044,94.292 457.116,91.58 460.385,88.228C463.737,84.797 466.252,80.965 467.927,76.738C469.682,72.507 470.561,68.239 470.561,63.929L444.706,63.929C444.306,65.924 443.75,67.799 443.03,69.556C442.393,71.311 441.512,72.827 440.395,74.104C439.36,75.38 438.043,76.377 436.448,77.094C434.931,77.815 433.055,78.173 430.822,78.173C427.71,78.173 425.115,77.496 423.041,76.138C420.965,74.782 419.29,72.986 418.013,70.752C416.816,68.519 415.938,66.003 415.38,63.21C414.823,60.417 414.543,57.585 414.543,54.712C414.543,51.84 414.823,49.006 415.38,46.214C415.938,43.421 416.816,40.908 418.013,38.672C419.29,36.439 420.965,34.643 423.041,33.287C425.115,31.93 427.71,31.252 430.822,31.252C433.533,31.252 435.728,31.77 437.404,32.808C439.159,33.845 440.556,35.041 441.593,36.399C442.632,37.756 443.349,39.151 443.75,40.588C444.146,41.945 444.426,43.021 444.587,43.819L470.202,43.819Z"/>
        <path d="M507.905,44.64L507.905,39.027C507.13,39.315 506.285,39.47 505.386,39.47C502.744,39.47 500.791,38.32 499.257,35.907C497.879,38.014 496.041,39.086 493.666,39.086C489.567,39.086 486.81,35.792 486.81,30.928C486.81,25.948 489.606,22.577 493.78,22.577C496.002,22.577 497.687,23.535 499.257,25.718C501.251,22.999 502.744,22.118 505.31,22.118C506.241,22.118 507.11,22.269 507.905,22.556L507.905,11.981L481.572,11.981L481.572,97.444L507.905,97.444L507.905,83.63L491.482,83.63L491.482,87.307L487.078,87.307L487.078,78.612L507.905,78.612L507.905,66.595L503.394,63.788C503.74,65.014 503.816,65.511 503.816,66.355C503.816,71.104 500.33,74.743 495.81,74.743C490.486,74.743 486.771,70.682 486.771,64.937C486.771,59.077 490.524,55.055 495.926,55.055C498.569,55.055 499.795,55.515 503.74,58.158L507.905,60.934L507.905,49.659L491.482,49.659L491.482,53.336L487.078,53.336L487.078,44.64L507.905,44.64Z"/>
        <path d="M505.118,27.404C503.165,27.404 501.71,28.898 501.71,30.889C501.71,32.805 503.204,34.298 505.08,34.298C506.806,34.298 507.314,33.892 507.905,32.64L507.905,28.938C507.425,27.627 506.681,27.404 505.118,27.404Z"/>
        <path d="M491.023,30.774C491.023,32.498 492.402,33.915 494.126,33.915C495.926,33.915 497.343,32.498 497.343,30.774C497.343,29.012 495.926,27.672 494.087,27.672C492.363,27.672 491.023,29.051 491.023,30.774Z"/>
        <path d="M490.985,64.822C490.985,67.235 492.977,69.227 495.427,69.227C497.84,69.227 499.871,67.235 499.871,64.861C499.871,62.486 497.879,60.494 495.466,60.494C492.977,60.494 490.985,62.409 490.985,64.822Z"/>
        <path d="M56.344,13.021C56.378,13.726 56.347,14.441 56.347,15.144C57.011,15.144 57.655,15.23 58.302,15.281L58.631,15.324C59.016,15.346 59.39,15.407 59.761,15.462C60.861,15.623 61.925,15.795 62.979,16.032C63.677,16.187 64.37,16.354 65.05,16.545L65.839,16.77C66.017,16.1 66.342,15.461 66.577,14.815C67.052,13.51 70.897,14.566 70.507,16.095C70.378,16.601 70.195,17.092 70.008,17.576C69.964,17.687 69.807,18.041 69.814,18.147L70.512,18.499L71.778,19.09C73.321,19.84 74.834,20.666 76.266,21.631C76.754,21.96 77.235,22.295 77.719,22.631C77.811,22.694 78.036,22.905 78.135,22.914C78.281,22.861 78.43,22.613 78.52,22.513C78.828,22.164 79.123,21.812 79.446,21.469C80.751,20.084 83.832,22.632 82.702,24.004C82.273,24.526 81.842,25.053 81.418,25.593C81.568,25.826 81.795,25.986 81.978,26.165L83.235,27.417L83.851,28.084C84.742,29.029 85.537,30.031 86.315,31.038C86.727,31.569 87.101,32.117 87.482,32.665C87.531,32.735 87.736,32.993 87.736,33.063C88.592,32.543 88.608,32.499 89.519,32.08C91.353,31.235 93.081,34.763 91.385,35.769C90.965,36.018 90.562,36.279 90.137,36.513C90.068,36.552 89.948,36.659 89.864,36.659C89.971,36.8 90.03,36.971 90.102,37.114C90.29,37.478 90.467,37.848 90.639,38.222C91.38,39.82 92.032,41.459 92.558,43.165C92.743,43.763 92.917,44.372 93.077,44.98C93.117,45.13 93.192,45.587 93.278,45.686C93.307,45.718 93.397,45.7 93.432,45.693C94.083,45.57 94.748,45.495 95.406,45.381C96.899,45.125 97.887,49.137 95.597,49.551C95.229,49.618 94.863,49.703 94.486,49.766C94.337,49.79 94.182,49.835 94.025,49.835L94.152,50.907L94.202,51.499C94.237,51.931 94.275,52.353 94.295,52.799C94.339,53.71 94.382,54.68 94.352,55.611C94.343,55.915 94.343,56.239 94.333,56.53L94.322,56.952L94.29,57.523L94.193,58.786L94.155,59.206C94.146,59.303 94.112,59.409 94.136,59.508C94.215,59.617 94.634,59.649 94.752,59.671C95.322,59.776 95.884,59.877 96.44,60.016C97.966,60.395 97.417,64.803 95.125,64.184C94.396,63.915 94.105,63.871 93.488,63.72C93.399,63.922 93.329,64.123 93.283,64.314C93.203,64.654 93.113,64.987 93.029,65.326C92.855,66.019 92.648,66.706 92.424,67.375C92.265,67.849 92.123,68.329 91.94,68.79C91.719,69.348 91.493,69.911 91.28,70.469C91.034,71.109 90.718,71.733 90.428,72.358C90.383,72.457 90.171,72.818 90.171,72.9L90.702,73.194L91.928,73.942C93.674,74.769 91.167,78.183 90.233,77.717C89.78,77.491 90.048,77.636 89.61,77.383C89.147,77.116 88.674,76.869 88.21,76.6L87.788,77.008C87.548,77.355 87.319,77.706 87.075,78.051C86.352,79.079 85.583,80.103 84.738,81.06L84.009,81.882L83.623,82.296L83.351,82.581C83.094,82.837 82.842,83.112 82.59,83.372L81.906,84.029L82.398,84.685L83.118,85.595C84.203,87.217 80.615,88.907 79.941,88.122L78.716,86.831L77.671,87.532C77.191,87.891 76.677,88.208 76.187,88.552L75.408,89.041L74.213,89.758L73.503,90.16L72.554,90.655C71.996,90.962 71.41,91.232 70.824,91.49C70.713,91.539 70.395,91.718 70.287,91.718L70.913,93.529C71.638,95.595 67.545,96.519 67.208,95.385C67.049,94.848 66.918,94.73 66.725,94.203C66.676,94.067 66.41,93.285 66.337,93.242C66.202,93.213 65.851,93.354 65.727,93.389C65.086,93.574 64.441,93.77 63.786,93.911L62.443,94.216L61.024,94.484C60.076,94.658 59.113,94.747 58.132,94.86C57.758,94.903 57.384,94.933 56.999,94.951C56.796,94.96 56.601,94.988 56.385,94.988C56.385,96.422 56.349,95.993 56.349,97.332C56.349,98.321 52.079,98.59 52.229,96.973C52.278,96.443 52.217,95.123 52.16,95.025C52.129,94.97 51.963,94.988 51.898,94.988C51.841,94.959 51.741,94.969 51.668,94.969C51.572,94.924 51.223,94.931 51.093,94.931C51.022,94.899 50.913,94.912 50.825,94.912L50.671,94.892C50.613,94.864 50.513,94.874 50.441,94.874C50.384,94.847 50.299,94.854 50.23,94.854C50.182,94.833 50.1,94.834 50.039,94.834C49.989,94.815 49.909,94.816 49.846,94.816C49.666,94.751 49.49,94.758 49.367,94.758L49.195,94.741C49.121,94.703 49.02,94.702 48.926,94.702C48.847,94.662 48.717,94.663 48.619,94.663C48.524,94.612 48.376,94.606 48.255,94.606L48.121,94.587L47.987,94.567C47.931,94.537 47.847,94.529 47.776,94.529L47.641,94.51L47.527,94.492L47.316,94.453C47.259,94.421 47.175,94.414 47.105,94.414L46.971,94.396C46.897,94.356 46.779,94.338 46.683,94.338L46.569,94.319C46.499,94.275 46.388,94.261 46.3,94.261L46.184,94.243L45.897,94.167L45.404,94.06C44.746,93.89 44.095,93.73 43.445,93.569C43.325,93.539 42.631,93.294 42.562,93.337C42.485,93.384 42.399,93.706 42.366,93.801L41.842,95.117C41.468,96.435 37.498,95.148 37.894,93.933C38.097,93.314 38.28,92.686 38.514,92.082C38.529,92.045 38.6,91.872 38.572,91.872C38.435,91.763 38.146,91.675 37.979,91.603L36.681,90.998C35.068,90.193 33.494,89.309 31.979,88.29L30.671,87.378L30.055,86.926L29.475,87.541L28.613,88.498C27.477,89.666 24.438,86.927 25.345,86.021C25.838,85.531 26.186,84.904 26.65,84.377C26.677,84.348 26.829,84.184 26.799,84.184L26.191,83.586C25.764,83.16 25.352,82.724 24.944,82.304C24.375,81.718 23.84,81.104 23.34,80.482C22.881,79.907 22.403,79.352 21.987,78.751C21.669,78.294 21.335,77.846 21.019,77.387L20.73,76.949L20.576,76.739C20.454,76.707 19.537,77.319 19.437,77.368C17.576,78.296 15.677,74.545 16.87,73.995L17.967,73.332C18.065,73.278 18.372,73.124 18.425,73.043C18.45,72.94 18.283,72.669 18.239,72.587L17.653,71.332C17.09,70.11 16.611,68.812 16.179,67.525C16.005,66.999 15.867,66.452 15.69,65.922C15.539,65.465 15.423,64.975 15.318,64.503C15.288,64.365 15.238,64.019 15.168,63.919C15.045,63.855 14.767,63.937 14.659,63.958L13.455,64.145C11.437,64.409 11.017,60.358 12.821,60.046C13.223,59.976 13.618,59.88 14.028,59.813C14.177,59.788 14.314,59.742 14.47,59.742C14.241,57.915 14.173,55.999 14.203,54.024C14.213,53.413 14.278,52.802 14.297,52.207C14.321,51.48 14.447,50.774 14.503,50.064C14.513,49.953 14.493,49.912 14.374,49.912C14.314,49.881 12.721,49.772 12.646,49.772C11.377,49.772 11.897,45.432 13.066,45.618L15.045,45.765C15.081,45.769 15.275,45.816 15.275,45.781C15.321,45.512 15.412,45.251 15.478,44.994C15.578,44.603 15.684,44.21 15.802,43.827C16.292,42.242 16.818,40.68 17.482,39.184C17.755,38.57 18.019,37.944 18.332,37.352C18.382,37.257 18.631,36.826 18.631,36.755L17.487,36.163C15.977,35.444 17.937,31.783 19.497,32.471C19.591,32.514 20.663,33.121 20.74,33.121L21.081,32.659C21.404,32.213 21.711,31.763 22.035,31.316C22.47,30.715 22.939,30.134 23.417,29.558C23.989,28.87 24.576,28.176 25.222,27.532C25.75,27.005 26.29,26.435 26.834,25.926C26.856,25.904 27.064,25.739 27.01,25.739L26.258,24.899C25.208,23.96 28.277,20.748 29.358,22.124L30.2,23.034L31.216,22.362L32.52,21.484C33.71,20.713 34.923,20.046 36.16,19.396C36.756,19.083 37.373,18.782 37.995,18.524C38.106,18.478 38.389,18.319 38.495,18.319L38.261,17.689L37.834,16.488C37.127,14.601 41.332,13.369 41.665,14.815C41.779,15.314 42.031,15.776 42.207,16.256C42.252,16.377 42.337,16.738 42.415,16.819C42.513,16.862 42.929,16.711 43.025,16.684L44.289,16.338L45.153,16.129C45.655,15.981 46.182,15.906 46.7,15.806C47.371,15.677 48.056,15.533 48.754,15.467L49.541,15.36C50.046,15.292 50.556,15.25 51.074,15.218C51.431,15.194 51.798,15.144 52.167,15.144C52.167,14.922 52.152,14.703 52.149,14.494L52.169,13.079C52.226,11.272 56.271,11.456 56.344,13.021ZM55.321,0.424C54.144,0.424 53.001,0.443 51.831,0.443L51.121,0.443C51.022,0.443 50.891,0.428 50.81,0.468C50.712,0.516 50.423,1.036 50.344,1.156C49.98,1.716 49.661,2.294 49.329,2.866C48.992,3.447 48.679,4.057 48.437,4.688C48.111,5.539 47.879,6.437 47.677,7.349L47.431,8.593L47.243,9.736C47.238,9.767 47.243,9.853 47.21,9.853C47.073,9.925 46.681,9.93 46.502,9.953L46.155,10.005L45.608,9.158L45.014,8.277C44.405,7.413 43.812,6.532 43.1,5.728C42.542,5.097 41.926,4.514 41.31,3.938C40.779,3.44 40.221,2.989 39.684,2.517C39.602,2.444 39.358,2.21 39.265,2.19C39.16,2.167 38.574,2.412 38.444,2.462L35.413,3.55L33.098,4.383C32.963,4.434 32.508,4.557 32.434,4.656C32.367,4.749 32.348,5.039 32.324,5.166C32.239,5.628 32.175,6.087 32.094,6.562C31.884,7.817 31.733,9.105 31.776,10.482C31.806,11.426 31.945,12.336 32.059,13.238L32.3,14.745C32.315,14.82 32.374,15.044 32.339,15.114C32.304,15.184 31.853,15.436 31.755,15.493C31.65,15.552 31.34,15.781 31.238,15.781C31.143,15.646 30.981,15.54 30.86,15.431C30.528,15.128 30.178,14.84 29.836,14.56C28.892,13.783 27.93,13.04 26.881,12.461C26.149,12.059 25.363,11.788 24.587,11.471C24.326,11.364 22.329,10.656 22.196,10.728C22.047,10.808 21.907,10.953 21.776,11.064L20.857,11.832L18.093,14.128L16.76,15.246L16.877,16.048L17.074,17.233C17.37,18.836 17.729,20.441 18.401,21.857C18.805,22.706 19.307,23.497 19.798,24.306C19.874,24.43 20.289,24.998 20.289,25.095C20.131,25.21 19.482,26.051 19.387,26.051C18.952,25.848 18.496,25.682 18.047,25.53C17.289,25.273 16.533,25.003 15.747,24.782C15.442,24.696 15.136,24.624 14.822,24.549C14.702,24.52 14.571,24.482 14.441,24.482L14.325,24.464L14.211,24.444L13.98,24.406L13.827,24.387L13.655,24.368C13.596,24.341 13.513,24.349 13.444,24.349C13.235,24.281 12.934,24.291 12.772,24.291C12.683,24.247 12.517,24.272 12.408,24.272C12.315,24.233 12.19,24.253 12.083,24.253C12.012,24.222 11.899,24.235 11.814,24.234L11.238,24.234C11.155,24.199 11.03,24.215 10.932,24.215C10.642,24.215 10.342,24.228 10.069,24.233C9.863,24.236 9.281,24.189 9.143,24.271C9.058,24.32 9.003,24.459 8.956,24.538L8.354,25.527L6.282,28.912L5.689,29.887C5.624,29.99 5.436,30.227 5.445,30.352C5.456,30.488 5.577,30.638 5.639,30.755C5.866,31.18 6.11,31.598 6.347,32.018C6.949,33.079 7.64,34.114 8.437,35.078C8.904,35.643 9.475,36.112 10.007,36.611C10.509,37.08 11.059,37.493 11.589,37.919C11.69,38 12.169,38.324 12.193,38.412C12.218,38.5 11.931,39.315 11.875,39.439C11.833,39.534 11.75,39.532 11.642,39.532C10.661,39.532 9.681,39.518 8.727,39.595C7.881,39.663 7.056,39.749 6.254,39.887C5.711,39.98 5.118,40.161 4.609,40.343C3.924,40.588 3.239,40.813 2.568,41.091L1.653,41.465C1.547,41.511 1.404,41.547 1.317,41.628C1.248,41.692 1.185,42.216 1.169,42.344L0.763,44.753L0.326,47.374L0.227,47.966C0.212,48.049 0.173,48.158 0.194,48.249C0.22,48.356 0.644,48.726 0.743,48.814C1.168,49.187 1.552,49.597 1.988,49.945C2.584,50.419 3.15,50.936 3.786,51.342C4.672,51.909 5.616,52.33 6.592,52.719C7.021,52.889 7.454,53.061 7.897,53.197L9.206,53.628L9.249,54.431L9.283,54.814C8.745,55.06 8.163,55.214 7.621,55.456L6.465,55.943C5.772,56.254 5.081,56.588 4.409,56.95C3.537,57.417 2.765,58.072 1.981,58.698C1.443,59.126 0.93,59.607 0.419,60.085C0.325,60.174 0.03,60.397 0.005,60.517C-0.015,60.619 0.03,60.749 0.05,60.84L0.146,61.357L0.668,64.128L1.147,66.653C1.172,66.784 1.243,67.339 1.317,67.404C1.39,67.465 1.501,67.488 1.589,67.522L2.517,67.85C3.746,68.278 5.013,68.68 6.331,68.921C7.114,69.065 7.945,69.107 8.765,69.171C9.047,69.194 9.322,69.187 9.609,69.197C10.033,69.21 10.507,69.234 10.932,69.234C11.064,69.234 11.528,69.208 11.602,69.261C11.675,69.31 12.081,70.221 12.11,70.345C12.026,70.514 11.912,70.575 11.818,70.652L11.217,71.142C10.767,71.525 10.312,71.907 9.865,72.3L9.355,72.785C9.047,73.064 8.707,73.375 8.449,73.697C8.185,74.023 7.903,74.33 7.662,74.67C7.004,75.605 6.388,76.552 5.822,77.527L5.466,78.146C5.432,78.213 5.378,78.279 5.368,78.359C5.353,78.486 5.516,78.71 5.575,78.82L6.155,79.867L8.215,83.611L8.642,84.383C8.69,84.475 8.731,84.601 8.817,84.669C8.889,84.726 9.032,84.702 9.129,84.709C9.765,84.759 10.473,84.715 11.105,84.707C11.941,84.693 12.781,84.657 13.577,84.547C14.503,84.419 15.347,84.179 16.204,83.918C16.524,83.823 16.85,83.724 17.158,83.606L18.696,83.038C18.795,83.003 19.011,82.874 19.113,82.895C19.197,82.913 19.769,83.475 19.848,83.576C19.9,83.639 19.881,83.7 19.842,83.764C19.464,84.417 19.091,85.073 18.756,85.756C18.326,86.631 17.885,87.473 17.57,88.397C17.198,89.491 16.958,90.639 16.714,91.796L16.509,92.91L16.386,93.693C16.389,93.753 16.405,93.781 16.441,93.82L20.425,97.248C20.612,97.401 21.652,98.363 21.784,98.361C21.928,98.359 22.147,98.25 22.28,98.202C22.799,98.001 23.325,97.81 23.841,97.606C24.908,97.179 25.981,96.736 26.955,96.133C27.93,95.529 28.842,94.816 29.768,94.124C29.928,94.003 30.866,93.19 30.968,93.197C31.118,93.206 31.418,93.413 31.563,93.483C31.617,93.507 31.947,93.666 31.947,93.695C31.965,93.761 31.924,93.843 31.911,93.905L31.819,94.365C31.665,95.071 31.563,95.796 31.455,96.526C31.325,97.403 31.247,98.316 31.278,99.278C31.293,99.759 31.355,100.236 31.423,100.694C31.497,101.197 31.556,101.7 31.669,102.187C31.795,102.729 31.878,103.281 32.013,103.813C32.046,103.935 32.072,104.205 32.155,104.289C32.215,104.348 32.31,104.362 32.383,104.393L33.039,104.634L35.859,105.662L38.08,106.476C38.22,106.526 38.502,106.675 38.653,106.641C38.763,106.615 38.893,106.494 38.981,106.428C39.377,106.124 39.796,105.841 40.19,105.527C41.013,104.87 41.828,104.199 42.583,103.422C43.233,102.755 43.717,101.979 44.222,101.23C44.756,100.445 45.232,99.623 45.668,98.796L46.041,98.775L46.846,98.871C46.879,98.874 46.961,98.86 46.961,98.895C47.037,99.798 47.138,100.689 47.281,101.554C47.437,102.503 47.597,103.438 47.909,104.305C48.229,105.193 48.667,106.048 49.156,106.856C49.494,107.412 49.817,107.984 50.187,108.53C50.248,108.62 50.417,108.922 50.502,108.969C50.571,109.004 50.691,108.993 50.776,108.993L57.314,108.993C57.462,108.993 57.994,109.021 58.077,108.965C58.199,108.885 58.338,108.609 58.417,108.482C58.671,108.076 58.944,107.687 59.177,107.272C59.627,106.475 60.083,105.699 60.449,104.857C60.859,103.921 61.107,102.86 61.261,101.802C61.385,100.948 61.501,100.102 61.571,99.22C61.575,99.17 61.591,98.895 61.61,98.895C61.977,98.866 62.321,98.788 62.684,98.758L62.875,98.723C63.139,99.248 63.43,99.755 63.742,100.249C64.436,101.344 65.106,102.423 65.988,103.42C66.188,103.646 66.403,103.849 66.626,104.047C67.085,104.449 67.515,104.851 67.988,105.215C68.518,105.622 69.037,106.054 69.59,106.426C69.699,106.498 69.834,106.642 69.967,106.655C70.03,106.662 70.115,106.616 70.167,106.595L70.679,106.408L73.499,105.381L75.8,104.54C75.911,104.502 76.384,104.35 76.434,104.277C76.509,104.169 76.542,103.928 76.569,103.792C76.622,103.522 76.689,103.261 76.745,102.989C76.984,101.841 77.234,100.639 77.292,99.413C77.324,98.723 77.286,98.044 77.222,97.384C77.193,97.068 77.17,96.759 77.113,96.452C77.019,95.945 76.954,95.438 76.867,94.938L76.65,93.845C76.635,93.757 76.632,93.695 76.707,93.647L77.274,93.347C77.37,93.294 77.502,93.192 77.62,93.197C77.716,93.199 78.151,93.594 78.25,93.678C78.752,94.104 79.284,94.5 79.81,94.894C80.475,95.39 81.181,95.914 81.903,96.302C82.7,96.729 83.511,97.107 84.347,97.449L85.346,97.847L86.34,98.215C86.473,98.267 86.64,98.359 86.787,98.363C86.934,98.364 87.199,98.048 87.323,97.958L89.188,96.36L91.566,94.313C91.698,94.198 92.133,93.888 92.185,93.749C92.217,93.668 92.156,93.437 92.141,93.347C92.05,92.788 91.975,92.225 91.839,91.683L91.713,91.054L91.495,90.114L91.263,89.222C90.894,88.021 90.435,86.89 89.846,85.8C89.546,85.244 89.262,84.682 88.945,84.137C88.891,84.041 88.665,83.704 88.665,83.616C88.803,83.511 89.382,82.891 89.486,82.895C89.568,82.898 89.652,82.946 89.724,82.976L90.261,83.184C90.919,83.446 91.596,83.672 92.274,83.891C93.183,84.185 94.129,84.465 95.128,84.561C95.529,84.6 95.925,84.645 96.335,84.665L97.063,84.691C97.723,84.753 98.429,84.723 99.115,84.723C99.232,84.723 99.699,84.721 99.759,84.675C99.821,84.63 99.85,84.54 99.884,84.477L100.314,83.698L102.422,79.872L102.998,78.821C103.054,78.724 103.233,78.471 103.215,78.362L103.093,78.122L102.654,77.356C101.76,75.882 100.882,74.427 99.6,73.15C99.028,72.578 98.442,72.075 97.856,71.56L97.286,71.079L96.55,70.491C96.522,70.466 96.468,70.4 96.43,70.4C96.514,70.234 96.901,69.278 97.01,69.248C97.189,69.199 97.442,69.234 97.639,69.234L97.966,69.215L98.751,69.213C99.32,69.205 99.909,69.165 100.458,69.123C101.114,69.071 101.753,69.025 102.374,68.901C103.528,68.67 104.669,68.346 105.746,67.959L107.284,67.416L108.195,62.6L108.461,61.184C108.491,61.036 108.6,60.656 108.571,60.516C108.551,60.413 108.194,60.117 108.095,60.028L107.316,59.315L106.729,58.811L105.949,58.17C105.555,57.874 105.178,57.57 104.765,57.31C104.146,56.919 103.499,56.588 102.84,56.277C102.318,56.029 101.788,55.773 101.245,55.576L100.416,55.244L99.745,54.992L99.307,54.833C99.331,54.652 99.322,54.474 99.329,54.297L99.364,53.743C99.365,53.71 99.35,53.628 99.384,53.628L100.283,53.335C100.847,53.167 101.403,52.947 101.949,52.738C102.837,52.397 103.714,52.002 104.527,51.512C105.325,51.031 106.104,50.391 106.81,49.751C107.198,49.399 107.596,49.05 107.979,48.68C108.105,48.558 108.276,48.431 108.363,48.284C108.422,48.186 108.305,47.713 108.284,47.584L107.941,45.519L107.44,42.535L107.328,41.866C107.317,41.794 107.319,41.699 107.275,41.644C107.208,41.557 107.058,41.519 106.96,41.482L106.062,41.111C105.102,40.717 104.118,40.378 103.106,40.082C102.884,40.017 102.664,39.958 102.433,39.913C102.324,39.892 102.23,39.858 102.107,39.858L101.992,39.84C101.932,39.807 101.856,39.801 101.781,39.801L101.646,39.783L101.493,39.763L101.34,39.744L101.033,39.706C100.982,39.683 100.904,39.686 100.841,39.686C100.779,39.661 100.687,39.667 100.611,39.667L100.458,39.648C100.39,39.617 100.29,39.627 100.211,39.621C99.985,39.601 99.759,39.591 99.517,39.591C99.399,39.537 99.182,39.571 99.038,39.571C98.933,39.524 98.744,39.552 98.616,39.552C98.509,39.505 98.324,39.534 98.195,39.534L96.718,39.534C96.688,39.335 96.336,38.512 96.385,38.401C96.411,38.343 96.492,38.298 96.539,38.263L96.982,37.92C97.571,37.418 98.196,36.954 98.78,36.425C99.196,36.047 99.631,35.652 100.009,35.224C100.843,34.281 101.543,33.225 102.147,32.153C102.397,31.709 102.653,31.278 102.895,30.832C102.955,30.723 103.141,30.457 103.136,30.337C103.132,30.204 102.862,29.852 102.785,29.719L101.29,27.27L100.005,25.167L99.699,24.669C99.63,24.55 99.561,24.392 99.457,24.296C99.416,24.258 99.348,24.253 99.288,24.253C99.209,24.222 99.094,24.234 99,24.234L98.386,24.234C98.256,24.182 97.971,24.215 97.811,24.215C97.227,24.215 96.651,24.244 96.085,24.27C95.408,24.301 94.766,24.353 94.132,24.47C93.091,24.661 92.121,25.001 91.141,25.311L89.755,25.812C89.57,25.882 89.382,25.986 89.183,26.024C89.113,26.037 88.564,25.397 88.483,25.298C88.456,25.264 88.305,25.075 88.281,25.075C88.394,24.838 88.566,24.64 88.694,24.438C89.053,23.871 89.441,23.29 89.735,22.703C89.952,22.27 90.183,21.853 90.378,21.407C90.631,20.827 90.811,20.21 90.975,19.59C91.14,18.964 91.293,18.326 91.414,17.676C91.529,17.06 91.664,16.438 91.734,15.8C91.751,15.658 91.835,15.365 91.786,15.237C91.758,15.165 91.647,15.093 91.587,15.045L91.106,14.647L88.805,12.733L87.007,11.238C86.897,11.144 86.434,10.718 86.325,10.714C86.199,10.709 86.054,10.777 85.939,10.816L84.848,11.168C83.751,11.539 82.656,11.93 81.655,12.483C80.856,12.923 80.115,13.474 79.383,14.038C78.889,14.417 78.421,14.833 77.935,15.235L77.54,15.585C77.477,15.644 77.408,15.72 77.33,15.752C77.249,15.784 76.52,15.311 76.4,15.236C76.355,15.207 76.255,15.111 76.202,15.111C76.265,14.908 76.29,14.679 76.321,14.462C76.374,14.097 76.441,13.724 76.496,13.353C76.665,12.229 76.81,11.08 76.81,9.871C76.81,8.933 76.669,8.04 76.57,7.155L76.398,6.027L76.248,5.146C76.208,4.993 76.22,4.768 76.128,4.643C76.078,4.576 75.863,4.521 75.781,4.495L74.458,4.018L70.681,2.657L69.66,2.287C69.556,2.25 69.415,2.165 69.299,2.165L68.367,2.957L68.074,3.218C67.65,3.59 67.217,3.962 66.804,4.361C66.314,4.834 65.83,5.331 65.394,5.823C64.81,6.484 64.333,7.22 63.809,7.916C63.437,8.41 63.111,8.939 62.769,9.456C62.69,9.576 62.531,9.894 62.422,9.968C62.372,10.001 62.269,9.987 62.204,9.987L62.089,9.967C61.98,9.913 61.728,9.91 61.591,9.91L61.437,9.891L61.205,8.934C61.118,8.331 60.992,7.725 60.853,7.139C60.655,6.304 60.447,5.48 60.143,4.693C59.843,3.915 59.431,3.171 59.015,2.455C58.711,1.93 58.41,1.389 58.059,0.887C57.988,0.785 57.869,0.523 57.762,0.467C57.655,0.411 57.446,0.443 57.314,0.443L55.934,0.443C55.741,0.443 55.494,0.475 55.321,0.424Z" style="fill:rgb(147,149,152);"/>
    </g>
</svg>
