<?xml version="1.0" encoding="UTF-8" standalone="no"?>
<!DOCTYPE svg PUBLIC "-//W3C//DTD SVG 1.1//EN" "http://www.w3.org/Graphics/SVG/1.1/DTD/svg11.dtd">
<svg width="100%" height="100%" viewBox="0 0 30 25" version="1.1" xmlns="http://www.w3.org/2000/svg" xmlns:xlink="http://www.w3.org/1999/xlink" xml:space="preserve" xmlns:serif="http://www.serif.com/" style="fill-rule:evenodd;clip-rule:evenodd;stroke-linejoin:round;stroke-miterlimit:2;">
    <g transform="matrix(0.649721,0,0,0.649721,-125.138,-109.681)">
        <g>
            <g transform="matrix(0.301817,0,0,0.467223,135.264,90.2253)">
                <path d="M342.221,173.553C342.221,171.233 339.305,169.349 335.714,169.349L200.245,169.349C196.653,169.349 193.737,171.233 193.737,173.553L193.737,181.961C193.737,184.281 196.653,186.165 200.245,186.165L335.714,186.165C339.305,186.165 342.221,184.281 342.221,181.961L342.221,173.553Z"/>
            </g>
            <g transform="matrix(0.301817,0,0,0.467223,135.264,105.16)">
                <path d="M342.221,173.553C342.221,171.233 339.305,169.349 335.714,169.349L200.245,169.349C196.653,169.349 193.737,171.233 193.737,173.553L193.737,181.961C193.737,184.281 196.653,186.165 200.245,186.165L335.714,186.165C339.305,186.165 342.221,184.281 342.221,181.961L342.221,173.553Z"/>
            </g>
            <g transform="matrix(0.301817,0,0,0.467223,135.264,120.094)">
                <path d="M342.221,173.553C342.221,171.233 339.305,169.349 335.714,169.349L200.245,169.349C196.653,169.349 193.737,171.233 193.737,173.553L193.737,181.961C193.737,184.281 196.653,186.165 200.245,186.165L335.714,186.165C339.305,186.165 342.221,184.281 342.221,181.961L342.221,173.553Z"/>
            </g>
        </g>
    </g>
</svg>
